{"title":"Ice Age The Great Egg-Scapade 2016 720p HDRIP x264 AC3 TiTAN","uid":13959707,"size":1907913860,"categoryP":"video","categoryS":"hd___movies","magnet":"?xt=urn:btih:6146a8ce3486e04c304787e1f54768429734198d&amp;dn=Ice+Age+The+Great+Egg-Scapade+2016+720p+HDRIP+x264+AC3+TiTAN&amp;tr=udp%3A%2F%2Ftracker.leechers-paradise.org%3A6969&amp;tr=udp%3A%2F%2Fzer0day.ch%3A1337&amp;tr=udp%3A%2F%2Fopen.demonii.com%3A1337&amp;tr=udp%3A%2F%2Ftracker.coppersurfer.tk%3A6969&amp;tr=udp%3A%2F%2Fexodus.desync.com%3A6969","seeders":1,"leechers":0,"uploader":"makintos13","files":1,"time":1458576679,"description":"Ice Age The Great Egg-Scapade 2016 720p HDRIP x264 AC3 TiTAN\r\n\r\nScreens:\r\n \nhttp://imgmak.com/KtQ\r\n \nhttp://imgmak.com/KtS\r\n \nhttp://imgmak.com/KtZ\r\n \nhttp://imgmak.com/Ktc\r\n \nhttp://imgmak.com/Ktn\r\n \nhttp://imgmak.com/Ktr\r\n\r\n:::::::::::\r\n\r\nGeneral\r\n\r\nFormat: Matroska\r\nFormat version: Version 2\r\nFile size: 1.78 GiB\r\nDuration: 1h 13mn\r\nOverall bit rate mode: Variable\r\nOverall bit rate: 3 446 Kbps\r\nEncoded date: UTC 2016-03-20 22:29:12\r\n\r\nVideo\r\nID: 1\r\nFormat: AVC\r\nFormat/Info: Advanced Video Codec\r\nFormat profile:   \r\nFormat settings, CABAC: Yes\r\nFormat settings, ReFrames: 3 frames\r\nCodec ID: V_MPEG4/ISO/AVC\r\nDuration: 1h 13mn\r\nBit rate mode: Variable\r\nBit rate: 3 186 Kbps\r\nMaximum bit rate: 40.0 Mbps\r\nWidth: 1 280 pixels\r\nHeight: 720 pixels\r\nDisplay aspect ratio: 16:9\r\nFrame rate mode: Constant\r\nFrame rate: 23.976 fps\r\nColor space: YUV\r\nChroma subsampling: 4:2:0\r\nBit depth: 8 bits\r\nScan type: Progressive\r\nBits/(Pixel*Frame): 0.144\r\nStream size: 1.64 GiB (92%)\r\nDefault: Yes\r\nForced: No\r\nColor primaries: BT.709\r\nTransfer characteristics: BT.709\r\nMatrix coefficients: BT.709\r\n\r\nAudio\r\nID: 2\r\nFormat: AC-3\r\nFormat/Info: Audio Coding 3\r\nMode extension: CM (complete main)\r\nFormat settings, Endianness: Big\r\nCodec ID: A_AC3\r\nDuration: 1h 13mn\r\nBit rate mode: Constant\r\nBit rate: 192 Kbps\r\nChannel(s): 2 channels\r\nChannel positions: Front: L R\r\nSampling rate: 48.0 KHz\r\nBit depth: 16 bits\r\nCompression mode: Lossy\r\nStream size: 101 MiB (6%)\r\nLanguage: English\r\nDefault: Yes\r\nForced: No","torrent":{"xt":"urn:btih:6146a8ce3486e04c304787e1f54768429734198d","amp;dn":"Ice+Age+The+Great+Egg-Scapade+2016+720p+HDRIP+x264+AC3+TiTAN","amp;tr":["udp%3A%2F%2Ftracker.leechers-paradise.org%3A6969","udp%3A%2F%2Fzer0day.ch%3A1337","udp%3A%2F%2Fopen.demonii.com%3A1337","udp%3A%2F%2Ftracker.coppersurfer.tk%3A6969","udp%3A%2F%2Fexodus.desync.com%3A6969"],"infoHash":"6146a8ce3486e04c304787e1f54768429734198d","infoHashBuffer":{"type":"Buffer","data":[97,70,168,206,52,134,224,76,48,71,135,225,245,71,104,66,151,52,25,141]},"announce":[],"urlList":[]}}